{"title":"Cairo.678.2010.DVDRip.XviD.AC3.HORiZON-ArtSubs","uid":7901228,"size":1466061844,"categoryP":"video","categoryS":"movies","magnet":"?xt=urn:btih:0f6efefc1c1a46c9eda9f5eedec19d6732bdd2b4&amp;dn=Cairo.678.2010.DVDRip.XviD.AC3.HORiZON-ArtSubs&amp;tr=udp%3A%2F%2Ftracker.openbittorrent.com%3A80&amp;tr=udp%3A%2F%2Fopen.demonii.com%3A1337&amp;tr=udp%3A%2F%2Ftracker.coppersurfer.tk%3A6969&amp;tr=udp%3A%2F%2Fexodus.desync.com%3A6969","seeders":12,"leechers":1,"uploader":"lletaif","files":3,"time":1354972416,"description":"Title: Cairo 1678 Aka 1678\n\nCountry: Egypt, 2010\n\nLanguage: Arabic\n\nSubtitle: English and Portuguese\n\nPlot: Unfolds the poignant story of three women and their search for justice from the daily plight of sexual harassment in Egypt.\n\nDirector: Mohamed Diab\n\nWriter: Mohamed Diab (original screenplay)\n\nStars: Boshra, Nelly Karim and Maged El Kedwany\n\nImdb:  &lt;a href=&quot;\nhttp://www.imdb.com/title/tt1764141/?ref_=fn_al_tt_1&quot; rel=&quot;nofollow&quot; target=&quot;_NEW&quot;&gt;\nhttp://www.imdb.com/title/tt1764141/?ref_=fn_al_tt_1&lt;/a&gt;\n\nRip Specs:\n\nGeneral\nComplete name                    : Cairo.678.2010.DVDRip.XviD.AC3.HORiZON-ArtSubs\nFormat                           : AVI\nFormat/Info                      : Audio Video Interleave\nFile size                        : 1.37 GiB\nDuration                         : 1h 38mn\nOverall bit rate                 : 1 982 Kbps\nWriting application              : FairUse Wizard - http://fairusewizard.com\nWriting library                  : The best and REALLY easy backup tool\n\nVideo\nID                               : 0\nFormat                           : MPEG-4 Visual\nFormat profile                   : Advanced Simple@L5\nFormat settings, BVOP            : 1\nFormat settings, QPel            : No\nFormat settings, GMC             : No warppoints\nFormat settings, Matrix          : Default (H.263)\nMuxing mode                      : Packed bitstream\nCodec ID                         : XVID\nCodec ID/Hint                    : XviD\nDuration                         : 1h 38mn\nBit rate                         : 1 778 Kbps\nWidth                            : 688 pixels\nHeight                           : 384 pixels\nDisplay aspect ratio             : 16:9\nFrame rate                       : 29.970 fps\nColor space                      : YUV\nChroma subsampling               : 4:2:0\nBit depth                        : 8 bits\nScan type                        : Progressive\nCompression mode                 : Lossy\nBits/(Pixel*Frame)               : 0.225\nStream size                      : 1.22 GiB (90%)\nWriting library                  : XviD 1.1.0 (UTC 2005-11-22)\n\nAudio\nID                               : 1\nFormat                           : AC-3\nFormat/Info                      : Audio Coding 3\nMode extension                   : CM (complete main)\nCodec ID                         : 2000\nDuration                         : 1h 38mn\nBit rate mode                    : Constant\nBit rate                         : 192 Kbps\nChannel(s)                       : 2 channels\nChannel positions                : Front: L R\nSampling rate                    : 48.0 KHz\nBit depth                        : 16 bits\nCompression mode                 : Lossy\nStream size                      : 135 MiB (10%)\nAlignment                        : Split accross interleaves\nInterleave, duration             : 33 ms (1.00 video frame)\nInterleave, preload duration     : 500 ms\n","torrent":{"xt":"urn:btih:0f6efefc1c1a46c9eda9f5eedec19d6732bdd2b4","amp;dn":"Cairo.678.2010.DVDRip.XviD.AC3.HORiZON-ArtSubs","amp;tr":["udp%3A%2F%2Ftracker.openbittorrent.com%3A80","udp%3A%2F%2Fopen.demonii.com%3A1337","udp%3A%2F%2Ftracker.coppersurfer.tk%3A6969","udp%3A%2F%2Fexodus.desync.com%3A6969"],"infoHash":"0f6efefc1c1a46c9eda9f5eedec19d6732bdd2b4","infoHashBuffer":{"type":"Buffer","data":[15,110,254,252,28,26,70,201,237,169,245,238,222,193,157,103,50,189,210,180]},"announce":[],"urlList":[]}}